<svg xmlns="http://www.w3.org/2000/svg" viewBox="0 0 750 500"><g id="freepik--background-complete--inject-33"><rect x="656.46" y="143.6" width="62.24" height="64.88" style="fill:#e0e0e0"></rect><rect x="652.25" y="143.6" width="62.24" height="64.88" style="fill:#ebebeb"></rect><rect x="660.61" y="152.32" width="45.5" height="47.43" style="fill:#fafafa"></rect><path d="M660.61,200.07a9.81,9.81,0,0,1-1.14,1.29c-.73.76-1.75,1.8-2.89,2.92s-2.2,2.14-3,2.86a9.38,9.38,0,0,1-1.3,1.11,8,8,0,0,1,1.13-1.29c.73-.76,1.76-1.8,2.9-2.93s2.2-2.14,3-2.86A8.33,8.33,0,0,1,660.61,200.07Z" style="fill:#e0e0e0"></path><path d="M706.12,200a9.81,9.81,0,0,1,1.29,1.14c.76.73,1.79,1.75,2.92,2.9s2.14,2.19,2.85,3a8.4,8.4,0,0,1,1.11,1.3,8.13,8.13,0,0,1-1.28-1.13c-.76-.73-1.8-1.75-2.93-2.9s-2.14-2.2-2.86-3A8.62,8.62,0,0,1,706.12,200Z" style="fill:#e0e0e0"></path><path d="M706,152.44a9.44,9.44,0,0,1,1.14-1.28c.73-.77,1.75-1.8,2.9-2.93s2.19-2.14,3-2.85a8.4,8.4,0,0,1,1.3-1.11,8.13,8.13,0,0,1-1.13,1.28c-.73.76-1.75,1.8-2.9,2.93s-2.2,2.14-3,2.86A7.91,7.91,0,0,1,706,152.44Z" style="fill:#e0e0e0"></path><path d="M660.49,152.56a8.48,8.48,0,0,1-1.29-1.14c-.76-.73-1.8-1.75-2.93-2.9s-2.13-2.19-2.85-3a7.88,7.88,0,0,1-1.11-1.3,8.13,8.13,0,0,1,1.28,1.13c.77.73,1.8,1.76,2.93,2.9s2.14,2.2,2.86,3A8.86,8.86,0,0,1,660.49,152.56Z" style="fill:#e0e0e0"></path><path d="M706,199.75s0-.08,0-.23v-.66c0-.59,0-1.44,0-2.56,0-2.24,0-5.51,0-9.66,0-8.31,0-20.15-.08-34.32l.15.15-45.37,0h0l.17-.17c0,17.41,0,33.7,0,47.43l-.15-.14,32.87.07,9.22,0,2.44,0h0l-2.42,0-9.19,0-33,.08h-.15v-.15c0-13.73,0-30,0-47.43v-.17h.18l45.37,0h.15v.15c0,14.21-.06,26.09-.08,34.42,0,4.13,0,7.39,0,9.63,0,1.1,0,1.94,0,2.53,0,.27,0,.49,0,.64A1.66,1.66,0,0,1,706,199.75Z" style="fill:#e0e0e0"></path><path d="M672.62,172.13s-1,11.75,11.75,11.75C684.37,177.61,679.19,172.66,672.62,172.13Z" style="fill:#ebebeb"></path><path d="M695.89,172.14s-11.74-1-11.74,11.75C690.42,183.89,695.36,178.72,695.89,172.14Z" style="fill:#ebebeb"></path><path d="M683.8,165.72s-9.59,8.61.53,18.16C689,178.89,688.63,171.07,683.8,165.72Z" style="fill:#e0e0e0"></path><polygon points="596.31 44.52 596.31 120.07 487.81 120.07 483.9 45.05 596.31 44.52" style="fill:#e0e0e0"></polygon><rect x="500.72" y="28.23" width="74.86" height="108.5" transform="translate(455.67 620.63) rotate(-90)" style="fill:#fff"></rect><path d="M592.91,120.42H483.38V44.54H592.91Zm-108.5-1H591.88V45.57H484.41Z" style="fill:#e0e0e0"></path><rect x="495.65" y="54.35" width="85" height="56.26" style="fill:#fff"></rect><path d="M580.65,54.35l-.42,0H579l-4.67,0-17.51.07-61.19.12.25-.25c0,17.19,0,36.24,0,56.25h0l-.27-.27,85,0-.22.22c.05-17.12.09-31.16.12-40.93,0-4.89,0-8.7.05-11.32,0-1.29,0-2.29,0-3s0-1,0-1,0,.33,0,1,0,1.66,0,2.93c0,2.61,0,6.41.06,11.28,0,9.8.06,23.88.11,41.06v.21h-.21l-85,.06h-.27v-.27h0c0-20,0-39.06,0-56.25v-.24h.25l61.35.12,17.46.06,4.62,0,1.18,0Z" style="fill:#e0e0e0"></path><path d="M483.9,44.84a9.44,9.44,0,0,1,1.86,1.21c1.11.8,2.63,1.94,4.26,3.25s3.07,2.54,4.08,3.46a9,9,0,0,1,1.55,1.59,73.07,73.07,0,0,1-6-4.64A57.29,57.29,0,0,1,483.9,44.84Z" style="fill:#e0e0e0"></path><path d="M592.4,45.05a51.91,51.91,0,0,1-5.71,4.86,52.55,52.55,0,0,1-6,4.44,53.35,53.35,0,0,1,5.71-4.86A53,53,0,0,1,592.4,45.05Z" style="fill:#e0e0e0"></path><path d="M592.31,119.92l-12.09-9.81" style="fill:#fff"></path><path d="M580.22,110.11a58.43,58.43,0,0,1,6.21,4.7,55.69,55.69,0,0,1,5.88,5.11,58.43,58.43,0,0,1-6.21-4.7A54.37,54.37,0,0,1,580.22,110.11Z" style="fill:#e0e0e0"></path><path d="M483.9,119.91a51.44,51.44,0,0,1,5.65-4.81,51.13,51.13,0,0,1,6-4.39,51.44,51.44,0,0,1-5.65,4.81A52.58,52.58,0,0,1,483.9,119.91Z" style="fill:#e0e0e0"></path><rect x="530.23" y="54.56" width="18.84" height="53.48" transform="translate(458.35 620.95) rotate(-90)" style="fill:#e0e0e0"></rect><path d="M141.32,50.89,107.26,38.58,73.53,50.73c-4.3,2-8.08,3.27-8.08,7.31v20.1a76.35,76.35,0,0,0,11.11,40,69.3,69.3,0,0,0,31,27.59c13.79-4.51,24.08-16.53,30.37-26.81a76.32,76.32,0,0,0,11.11-40V60.85C149.07,55.09,146,52.28,141.32,50.89Z" style="fill:#f5f5f5"></path><path d="M107.59,134.08a55.12,55.12,0,0,1-24.55-22,60.36,60.36,0,0,1-8.79-31.65V66.31c0-3.19,1.91-6.19,5.72-8l27.3-10.28V38.58L73.53,50.73C70,52.28,65.45,54,65.45,58v20.1a76.35,76.35,0,0,0,11.11,40,69.3,69.3,0,0,0,31,27.59Z" style="fill:#ebebeb"></path><path d="M107.59,145.75a40.65,40.65,0,0,0,6.69-2.89,60.06,60.06,0,0,0,14.16-11.21,76.18,76.18,0,0,0,9.85-13.33,73.49,73.49,0,0,0,10.78-40.4l0-16.6c0-8.26-4.23-8.87-7.77-10.43L107.26,38.58v9.48L134.89,58.5c3.8,1.79,5.71,4.78,5.71,8v14.1a60.37,60.37,0,0,1-8.79,31.66c-5,8.13-12.35,16.52-24.22,21.84Z" style="fill:#e0e0e0"></path><path d="M116.3,79.51l0-2.71a8.84,8.84,0,1,0-17.68,0l0,2.77a5,5,0,0,0-4.22,4.92v16a5,5,0,0,0,5,5h16.5a5,5,0,0,0,5-5v-16A5,5,0,0,0,116.3,79.51Zm-6.45,17h-4.32l.68-3.14a2.62,2.62,0,1,1,2.85,0Zm4.54-17H100.52l0-2.69a6.94,6.94,0,1,1,13.88,0Z" style="fill:#e0e0e0"></path><path d="M79.77,79.31a10.52,10.52,0,0,1-.51-2.78A47.09,47.09,0,0,1,79,69.7c0-1.33.13-2.6.25-3.75a8.18,8.18,0,0,1,.76-3,3.51,3.51,0,0,1,1.49-1.51c.46-.21.75-.2.75-.17a3.94,3.94,0,0,0-1.87,1.87,8.59,8.59,0,0,0-.59,2.9c-.09,1.14-.16,2.4-.19,3.72-.08,2.64,0,5,.1,6.77A16.79,16.79,0,0,1,79.77,79.31Z" style="fill:#fff"></path><path d="M80.27,88.07c-.17,0-.31-.83-.33-1.85s.09-1.85.26-1.85.31.82.33,1.84S80.43,88.06,80.27,88.07Z" style="fill:#fff"></path><path d="M638.15,374.66a34.1,34.1,0,0,0-14.62-5c-2.39-.24-5-.17-6.92,1.27a1.43,1.43,0,0,0-.71,1.27,1.57,1.57,0,0,0,.67.86c5.95,4.54,14.95,5.11,21.58,1.64" style="fill:#e0e0e0"></path><path d="M637.77,374.24a70.46,70.46,0,0,1-9.44-8.31A23.89,23.89,0,0,1,622.41,355a4.39,4.39,0,0,1,.47-3.66c7.52,5.88,13.44,13.48,14.89,22.92" style="fill:#e0e0e0"></path><path d="M638.07,374.6a34,34,0,0,1,.18-12.4,16.71,16.71,0,0,1,6.6-10.23c1.3,3,.74,6.54-.17,9.72a47.38,47.38,0,0,1-6.55,13.79" style="fill:#e0e0e0"></path><path d="M645.45,387.82c-4.48.55-8.38,2.91-11.73,5.94a22.18,22.18,0,0,0-6.7,11.51c4.39-.27,8.12-3.37,10.82-6.84s4.58-7.29,7.55-10.54" style="fill:#e0e0e0"></path><path d="M647.05,389.94a29,29,0,0,1,3.34-27.36c2.56,9.08,1.62,19.33-3.34,27.36" style="fill:#e0e0e0"></path><path d="M656.8,401.55a20.93,20.93,0,0,0-20,11.51,1.55,1.55,0,0,0-.14,1.57A1.51,1.51,0,0,0,638,415c3.94-.26,7.43-2.63,10.31-5.33s5.4-5.82,8.58-8.15" style="fill:#e0e0e0"></path><path d="M656.49,400.92a37.38,37.38,0,0,1-.37-20.81c.73-2.68,2-5.5,4.44-6.75a.88.88,0,0,1,.68-.12.89.89,0,0,1,.43.5,12.54,12.54,0,0,1,1.05,6,37.67,37.67,0,0,1-.94,6.05c-.78,3.69-1.19,7.66-3.22,10.84a23.9,23.9,0,0,0-1.29,2.39c-.38.8-.38,1.09-.73,1.73" style="fill:#e0e0e0"></path><path d="M682.3,404.76c-1.91-7.27.12-16.09,4.71-22.05.33-.44.78-.91,1.33-.86.85.08,1.06,1.2,1,2a39.78,39.78,0,0,1-7.07,20.86" style="fill:#e0e0e0"></path><path d="M684.63,406.35A32.08,32.08,0,0,0,711,401a21.29,21.29,0,0,0-14.25-1.75c-4.76,1.09-9.12,3.22-12.08,7.1" style="fill:#e0e0e0"></path><path d="M686.59,401.51c4.95-8.07,14.44-13.34,23.9-13.82-1.09,3.85-4.25,6.84-7.82,8.64s-7.54,2.6-11.47,3.36c-1.52.29-3.62.62-4.61,1.82" style="fill:#e0e0e0"></path><path d="M682.8,378a69.58,69.58,0,0,0,3.05-14c.37-4.76-.31-9.74-2.79-13.84-4.62,8.95-5.09,19.4-.4,28.32" style="fill:#e0e0e0"></path><path d="M698.36,370.14c5.41-9.83,16.44-17.68,27.6-18.78-4.31,10.73-16.05,19-27.6,18.78" style="fill:#e0e0e0"></path><path d="M695,372.07c8.06,1.22,14.93,6.37,22.47,9.5a10.22,10.22,0,0,0,5.08,1,4,4,0,0,0,2.49-7,11,11,0,0,0-3.69-2.23c-8.21-3.42-17-3.51-25.66-1.43" style="fill:#e0e0e0"></path><path d="M690.29,377.72c1.83.52,2.45,1.47,3.9,2.7a41.86,41.86,0,0,0,17,8.75c.65.16,1.5.23,1.82-.36s-.07-1.14-.44-1.59a23.48,23.48,0,0,0-10.28-7c-3.94-1.46-7.34-3.23-12-2.85" style="fill:#e0e0e0"></path><path d="M685,343.56A32.26,32.26,0,0,0,709.75,352a1.68,1.68,0,0,0,1.12-.41c.63-.68-.12-1.72-.84-2.29-7.27-5.66-16.08-8-25-5.72" style="fill:#e0e0e0"></path><path d="M691.27,341.28a34.45,34.45,0,0,1,30.85-5.09,24.48,24.48,0,0,1-14.7,6.45,46.32,46.32,0,0,1-16.15-1.36" style="fill:#e0e0e0"></path><path d="M688.79,325.58c-.71-7.25-.25-13-.75-20.26,0-.59-.17-1.29-.71-1.5-.76-.29-1.39.64-1.64,1.42a23.22,23.22,0,0,0,3.09,20.18" style="fill:#e0e0e0"></path><path d="M688.27,326.39a42.84,42.84,0,0,0,12-11.68c2.37-3.25,4.37-7.14,3.83-11.13a11.52,11.52,0,0,0-8.67,4.31,24.27,24.27,0,0,0-4.42,8.89c-1,3.19-1.63,6.47-2.76,9.61" style="fill:#e0e0e0"></path><path d="M700.07,323.11a96.9,96.9,0,0,0,29.58-17.44c-3.54-1.42-7.58-.57-11.11.85A35.06,35.06,0,0,0,699.92,323" style="fill:#e0e0e0"></path><path d="M691.59,330.35c5.46.6,11,1,16.42.08s10.35-3,15.33-5.09a1.78,1.78,0,0,0,1-.79,1.19,1.19,0,0,0-.37-1.31,3.1,3.1,0,0,0-1.31-.61c-5.41-1.52-11.25-.81-16.57,1a76.69,76.69,0,0,0-14.54,6.73" style="fill:#e0e0e0"></path><path d="M660.42,343.81c-3.73-7.52-3.49-16.29-.27-24,2.27,3.45,2.54,7.85,2.13,12s-1.67,8.33-1.75,12.46" style="fill:#e0e0e0"></path><path d="M645.54,336.31a33.53,33.53,0,0,0-24.92,10.61,23.28,23.28,0,0,0,13.64-2.53,69.17,69.17,0,0,0,11.7-7.82" style="fill:#e0e0e0"></path><path d="M635.53,333c-4.55-.37-8.92-.93-13.3.41a16,16,0,0,0-10.14,8.6,24,24,0,0,0,12.47-2.36,71.39,71.39,0,0,0,11-6.65" style="fill:#e0e0e0"></path><path d="M650.34,333.12c-4.09-2.69-8.29-5.42-13.06-6.53s-10.28-.29-13.61,3.3c3.86,2.27,8.54,2.54,13,2.53s10-.05,14.18,1.44" style="fill:#e0e0e0"></path><path d="M650.37,333.33c-7-6.87-9.65-19.21-6.84-28.6a43.56,43.56,0,0,1,6.84,28.6" style="fill:#e0e0e0"></path><path d="M669.61,313.87c1.32-3.07,2.25-6.29,3.43-9.41a26.86,26.86,0,0,1,4.89-8.68,12.91,12.91,0,0,1,8.67-4.49,34.9,34.9,0,0,1-16.82,22.62" style="fill:#e0e0e0"></path><path d="M666.13,317.92c-2.19-3-4.71-7.08-7.67-9.33s-6.82-3.6-10.43-2.74a24.3,24.3,0,0,0,18.1,12.07" style="fill:#e0e0e0"></path><path d="M666.82,314.12a52.19,52.19,0,0,1-3.45-11.18,17.41,17.41,0,0,1,1.75-11.37c3.84,7.26,5.08,15.06,1.9,22.63" style="fill:#e0e0e0"></path><path d="M669.64,291.57c2.18-7.19,8.77-12.49,15.88-14.93a6,6,0,0,1,2.79-.41,2.41,2.41,0,0,1,2.05,1.71c.26,1.22-.75,2.32-1.7,3.13a54,54,0,0,1-19,10.5" style="fill:#e0e0e0"></path><path d="M669.72,285.69c.28-4.64.57-9.35,2.08-13.75s4.41-8.52,8.65-10.44c.72,4.68-1.35,9.35-3.85,13.38s-5.49,7.84-7,12.34" style="fill:#e0e0e0"></path><path d="M669.61,288.88c-1.8-5.24-2-11.91-5.13-16.48-2.19-3.19-5.71-5.37-7.6-8.75a13.33,13.33,0,0,0,.44,9.94,29.16,29.16,0,0,0,5.81,8.32c2.33,2.48,4.32,4.35,6.48,7" style="fill:#e0e0e0"></path><path d="M669.64,443.34c-.14,0-.26-35-.27-78.14s.1-78.15.24-78.15.26,35,.27,78.15S669.78,443.34,669.64,443.34Z" style="fill:#e0e0e0"></path><path d="M700.22,338.53a6.9,6.9,0,0,1-1.32.5l-3.62,1.22c-3,1-7.24,2.54-11.79,4.41s-8.76,3.5-11.18,5.6a8.23,8.23,0,0,0-2.25,3c-.34.82-.41,1.32-.45,1.32s0-.13,0-.37a5.22,5.22,0,0,1,.26-1,7.9,7.9,0,0,1,2.19-3.17,19.78,19.78,0,0,1,4.85-3c1.94-.91,4.09-1.85,6.37-2.79,4.57-1.87,8.8-3.33,11.88-4.28,1.54-.48,2.8-.84,3.68-1.07A8,8,0,0,1,700.22,338.53Z" style="fill:#e0e0e0"></path><path d="M710.24,313.91s-.11.15-.37.4l-1.12,1.05-4.19,3.81-13.95,12.42c-5.45,4.85-10.15,9.48-13.42,13-1.63,1.74-2.91,3.18-3.79,4.19l-1,1.16a2.33,2.33,0,0,1-.37.38,2.17,2.17,0,0,1,.29-.45c.22-.28.52-.7,1-1.22.83-1,2.08-2.53,3.68-4.3a175.82,175.82,0,0,1,13.34-13.11c5.47-4.83,10.44-9.18,14.05-12.31l4.3-3.68,1.19-1A2.51,2.51,0,0,1,710.24,313.91Z" style="fill:#e0e0e0"></path><path d="M684.73,336.52c-.14-.06,1-2.69,2.13-6s1.68-6.13,1.82-6.1a20.33,20.33,0,0,1-1.34,6.26,39.81,39.81,0,0,1-1.7,4.21A6.52,6.52,0,0,1,684.73,336.52Z" style="fill:#e0e0e0"></path><path d="M669.67,357.7a7.15,7.15,0,0,1-.83-1L666.69,354c-1.81-2.34-4.31-5.56-7.1-9.08s-5.38-6.69-7.24-9l-2.2-2.72a6.06,6.06,0,0,1-.75-1,7.09,7.09,0,0,1,.9.91c.56.61,1.36,1.5,2.32,2.62,1.94,2.23,4.56,5.36,7.36,8.89s5.26,6.79,7,9.18c.87,1.2,1.56,2.17,2,2.86A5.67,5.67,0,0,1,669.67,357.7Z" style="fill:#e0e0e0"></path><path d="M663,349.09a12.34,12.34,0,0,1-2.81-5.26,15.19,15.19,0,0,1-.64-5.3l.23,0c-.1.41-.18.62-.22.61a1.56,1.56,0,0,1,0-.65l.22,0a23.59,23.59,0,0,0,.9,5.16A39.29,39.29,0,0,0,663,349.09Z" style="fill:#e0e0e0"></path><path d="M654.31,338.2a8.92,8.92,0,0,0-2-1.13,13.12,13.12,0,0,0-5.44-.44,33.47,33.47,0,0,0-5.48.89,17.22,17.22,0,0,1-2.26.54,7.91,7.91,0,0,1,2.16-.89,25.24,25.24,0,0,1,5.54-1,12,12,0,0,1,5.62.6A3.45,3.45,0,0,1,654.31,338.2Z" style="fill:#e0e0e0"></path><path d="M652.26,335.57c0,.07-1.14-.46-3-1.1a30.27,30.27,0,0,0-15.14-1.15c-1.94.34-3.11.71-3.14.62a3.27,3.27,0,0,1,.8-.34,19.85,19.85,0,0,1,2.27-.63,26.53,26.53,0,0,1,15.33,1.17,18.4,18.4,0,0,1,2.15,1C652,335.37,652.28,335.53,652.26,335.57Z" style="fill:#e0e0e0"></path><path d="M669.61,324.41a61.09,61.09,0,0,1-2.19-7.61,59.82,59.82,0,0,1-1.7-7.74,64.74,64.74,0,0,1,2.19,7.61A64.15,64.15,0,0,1,669.61,324.41Z" style="fill:#e0e0e0"></path><path d="M669.75,324.41a36.36,36.36,0,0,0-2.43-4.56,19.71,19.71,0,0,0-3.58-3.69,3.4,3.4,0,0,1,1.38.71,11.2,11.2,0,0,1,2.61,2.69A10.16,10.16,0,0,1,669.75,324.41Z" style="fill:#e0e0e0"></path><path d="M669.64,424.69s-.15-.84-.55-2.33a32.77,32.77,0,0,0-2.34-6.05c-2.41-4.94-6.81-11.21-12.4-17.48-2.77-3.17-5.46-6.15-7.74-9a63,63,0,0,1-5.53-8,38.77,38.77,0,0,1-2.8-5.92c-.25-.73-.44-1.3-.54-1.69a2.34,2.34,0,0,1-.15-.61s.3.8.88,2.23a42.13,42.13,0,0,0,2.92,5.81,67.21,67.21,0,0,0,5.58,7.87c2.29,2.83,5,5.8,7.76,9,5.6,6.29,10,12.63,12.34,17.65a29.6,29.6,0,0,1,2.21,6.17,17.5,17.5,0,0,1,.31,1.75A2.64,2.64,0,0,1,669.64,424.69Z" style="fill:#e0e0e0"></path><path d="M697.27,393.48a11.23,11.23,0,0,1-1.45.82,31.73,31.73,0,0,0-3.75,2.48,41.83,41.83,0,0,0-4.93,4.5c-1.74,1.83-3.52,4-5.34,6.23-3.64,4.56-7,8.6-9.08,11.83-1,1.6-1.79,3-2.28,3.89a11.32,11.32,0,0,1-.8,1.46,1.48,1.48,0,0,1,.14-.41c.1-.26.25-.65.48-1.13a35.09,35.09,0,0,1,2.16-4c2-3.31,5.35-7.4,9-12,1.82-2.28,3.63-4.41,5.39-6.24a40.6,40.6,0,0,1,5.05-4.46,27,27,0,0,1,3.88-2.37c.48-.24.87-.39,1.13-.5A1.77,1.77,0,0,1,697.27,393.48Z" style="fill:#e0e0e0"></path><path d="M697.81,403.61a22.4,22.4,0,0,1-3.06.44,41.14,41.14,0,0,0-7.26,1.43,21.84,21.84,0,0,0-6.5,3.41c-1.49,1.16-2.2,2.12-2.27,2.06a2.31,2.31,0,0,1,.45-.7,12.31,12.31,0,0,1,1.6-1.64,19.91,19.91,0,0,1,6.57-3.61,32.55,32.55,0,0,1,7.38-1.3A16.23,16.23,0,0,1,697.81,403.61Z" style="fill:#e0e0e0"></path><path d="M679.61,409.84c-.16-.09,1.22-2.2,2.29-5s1.24-5.37,1.42-5.34a4.78,4.78,0,0,1-.05,1.64,17.6,17.6,0,0,1-.89,3.87,19.08,19.08,0,0,1-1.78,3.55A4.88,4.88,0,0,1,679.61,409.84Z" style="fill:#e0e0e0"></path><path d="M706.22,366.3a1.77,1.77,0,0,1-.49.26l-1.44.66c-.63.27-1.39.61-2.25,1.06s-1.88.91-2.93,1.54l-1.67.95c-.58.33-1.15.73-1.76,1.11-1.23.75-2.46,1.67-3.78,2.6a64.84,64.84,0,0,0-14.56,15.07c-.89,1.35-1.77,2.61-2.47,3.87-.36.62-.74,1.2-1,1.79s-.61,1.16-.89,1.71c-.6,1.07-1,2.09-1.44,3s-.74,1.65-1,2.29l-.6,1.46a2.23,2.23,0,0,1-.25.5,3.37,3.37,0,0,1,.15-.53l.52-1.5c.22-.65.51-1.44.91-2.33s.8-1.94,1.38-3c.27-.56.56-1.13.87-1.73s.67-1.19,1-1.83c.69-1.27,1.56-2.55,2.45-3.92a62.64,62.64,0,0,1,14.66-15.17c1.34-.94,2.59-1.85,3.84-2.59.62-.37,1.2-.76,1.78-1.09l1.7-.92c1.07-.62,2.09-1.06,3-1.48s1.66-.75,2.31-1l1.47-.56A2.45,2.45,0,0,1,706.22,366.3Z" style="fill:#e0e0e0"></path><path d="M684.35,381a3.61,3.61,0,0,1,1.21-1.79,7.63,7.63,0,0,1,4.84-1.86,13.38,13.38,0,0,1,5.1,1,7.21,7.21,0,0,1,1.93.94,12.22,12.22,0,0,1-2-.6,15.49,15.49,0,0,0-5-.83,7.89,7.89,0,0,0-4.63,1.62A15.27,15.27,0,0,0,684.35,381Z" style="fill:#e0e0e0"></path><path d="M681.09,384.33a18.51,18.51,0,0,0,1.37-4.48,18.1,18.1,0,0,0-.31-4.67c.06,0,.33.45.57,1.3a9.07,9.07,0,0,1,.24,3.43,9.2,9.2,0,0,1-1,3.28A3.25,3.25,0,0,1,681.09,384.33Z" style="fill:#e0e0e0"></path><path d="M645.48,429.7c.75,13.38,4.78,27,11,40.72h26.95c5.91-13.61,9.66-27.19,10.33-40.72Z" style="fill:#e0e0e0"></path><path d="M689.37,451.34c0,.14-8.87.25-19.82.25s-19.82-.11-19.82-.25,8.87-.25,19.82-.25S689.37,451.2,689.37,451.34Z" style="fill:#fafafa"></path><path d="M688.77,456.19c0,.14-8.32.25-18.58.25s-18.58-.11-18.58-.25,8.32-.26,18.58-.26S688.77,456.05,688.77,456.19Z" style="fill:#fafafa"></path><path d="M656.89,438.48a74.29,74.29,0,0,1,0,12.42,77.25,77.25,0,0,1,0-12.42Z" style="fill:#fafafa"></path><path d="M671.33,438.48a79.64,79.64,0,0,1,0,12.86,82.81,82.81,0,0,1,0-12.86Z" style="fill:#fafafa"></path><path d="M684.89,438.37a86.19,86.19,0,0,1,0,13.12,86.19,86.19,0,0,1,0-13.12Z" style="fill:#fafafa"></path><path d="M692.88,438.48c0,.14-10.41.26-23.24.26s-23.25-.12-23.25-.26,10.41-.25,23.25-.25S692.88,438.34,692.88,438.48Z" style="fill:#fafafa"></path></g><g id="freepik--Floor--inject-33"><path d="M705,470.32c0,.15-147.2.26-328.74.26s-328.77-.11-328.77-.26,147.17-.26,328.77-.26S705,470.18,705,470.32Z" style="fill:#263238"></path></g><g id="freepik--Device--inject-33"><path d="M543.28,92.16H115.16a13.37,13.37,0,0,0-13.36,13.37V407.92a13.36,13.36,0,0,0,13.36,13.36H279.47s10.45,32.32-22,49H411.16s-36.58-12.54-27.17-49H543.28a13.36,13.36,0,0,0,13.36-13.36V105.53A13.37,13.37,0,0,0,543.28,92.16Z" style="fill:#455a64"></path><path d="M332.78,389.48c5.83,8.32-3.29,17.44-11.61,11.61a2.86,2.86,0,0,1-.72-.71c-5.81-8.33,3.3-17.43,11.62-11.62A2.86,2.86,0,0,1,332.78,389.48Z" style="fill:#263238"></path><path d="M118.87,97.7H539.57a9.7,9.7,0,0,1,9.7,9.7V366a0,0,0,0,1,0,0H109.17a0,0,0,0,1,0,0V107.4A9.7,9.7,0,0,1,118.87,97.7Z" style="fill:#e0e0e0"></path><path d="M466.74,421.32c0,.14-60.92.26-136.06.26s-136.06-.12-136.06-.26,60.9-.25,136.06-.25S466.74,421.18,466.74,421.32Z" style="fill:#263238"></path><rect x="157.12" y="106.37" width="340.37" height="250.93" style="fill:#fff"></rect><path d="M498,357.8H156.62V105.87H498Zm-340.37-1H497V106.87H157.62Z" style="fill:#263238"></path><path d="M173.16,117.74a2.39,2.39,0,1,1-2.39-2.39A2.39,2.39,0,0,1,173.16,117.74Z" style="fill:#263238"></path><circle cx="177.9" cy="117.74" r="2.39" style="fill:#263238"></circle><circle cx="184.68" cy="117.74" r="2.39" style="fill:#263238"></circle><path d="M347.84,134l-18.57-6.84-18.38,6.75c-2.35,1.14-4.41,1.82-4.41,4.06v11.17a43,43,0,0,0,6.06,22.22,38.07,38.07,0,0,0,16.91,15.32c7.52-2.51,13.13-9.18,16.55-14.89a42.94,42.94,0,0,0,6.06-22.22v-10C352.06,136.31,350.41,134.75,347.84,134Z" style="fill:#FF0077"></path><g style="opacity:0.8"><path d="M347.84,134l-18.57-6.84-18.38,6.75c-2.35,1.14-4.41,1.82-4.41,4.06v11.17a43,43,0,0,0,6.06,22.22,38.07,38.07,0,0,0,16.91,15.32c7.52-2.51,13.13-9.18,16.55-14.89a42.94,42.94,0,0,0,6.06-22.22v-10C352.06,136.31,350.41,134.75,347.84,134Z" style="fill:#fff"></path></g><path d="M343,163.09h-4.13V140.63a9.59,9.59,0,0,0-19.18,0v22.46h-4.13V140.63a13.72,13.72,0,0,1,27.44,0Z" style="fill:#FF0077"></path><g style="opacity:0.4"><path d="M343,163.09h-4.13V140.63a9.59,9.59,0,0,0-19.18,0v22.46h-4.13V140.63a13.72,13.72,0,0,1,27.44,0Z"></path></g><rect x="310.78" y="153.1" width="36.97" height="23.72" rx="5.81" style="fill:#FF0077"></rect><g style="opacity:0.5"><path d="M332.36,161.87a3.09,3.09,0,1,0-3.93,3v4.62h1.68v-4.62A3.08,3.08,0,0,0,332.36,161.87Z"></path></g><path d="M312.76,174.57c-.09,0-.16-3.95-.16-8.83s.07-8.84.16-8.84.15,4,.15,8.84S312.84,174.57,312.76,174.57Z" style="fill:#fafafa"></path><path d="M326.85,165.83s-.14-.05-.36-.2a3.9,3.9,0,0,1-.8-.82,4.32,4.32,0,0,1,1.54-6.49,3.62,3.62,0,0,1,1.08-.37c.26,0,.41,0,.41,0a8.49,8.49,0,0,0-1.38.58,4.27,4.27,0,0,0-1.47,6.18A9.12,9.12,0,0,0,326.85,165.83Z" style="fill:#fafafa"></path><circle cx="298.78" cy="169.45" r="1.42" style="fill:#FF0077"></circle><path d="M363,132.15a1.43,1.43,0,1,1-1.42-1.43A1.43,1.43,0,0,1,363,132.15Z" style="fill:#FF0077"></path><path d="M307.23,182.74a.38.38,0,0,1-.37.37.37.37,0,0,1-.36-.37.36.36,0,0,1,.36-.36A.37.37,0,0,1,307.23,182.74Z" style="fill:#FF0077"></path><path d="M307.23,142.48a.37.37,0,0,1-.37.36.36.36,0,1,1,0-.72A.37.37,0,0,1,307.23,142.48Z" style="fill:#FF0077"></path><path d="M363.7,161.87a.36.36,0,1,1-.72,0,.36.36,0,1,1,.72,0Z" style="fill:#FF0077"></path><path d="M368.73,145a.36.36,0,1,1-.36-.36A.36.36,0,0,1,368.73,145Z" style="fill:#FF0077"></path><path d="M242.77,202h-4.9l-1,2.27H235l4.42-9.82h1.79l4.43,9.82h-1.9Zm-.6-1.43-1.85-4.29-1.84,4.29Z"></path><path d="M253.85,196.81v7.49h-1.66v-1a3.11,3.11,0,0,1-2.42,1.05,3,3,0,0,1-3.22-3.31v-4.28h1.75v4c0,1.36.65,2,1.75,2a2,2,0,0,0,2-2.26v-3.79Z"></path><path d="M260.66,203.89a2.74,2.74,0,0,1-1.69.51,2.3,2.3,0,0,1-2.58-2.53v-3.6h-1.23v-1.4h1.23v-1.71h1.76v1.71h2v1.4h-2v3.56c0,.73.36,1.12,1,1.12a1.54,1.54,0,0,0,1-.31Z"></path><path d="M269.48,200v4.29h-1.75v-4.07c0-1.33-.66-2-1.78-2a2,2,0,0,0-2.09,2.25v3.79H262.1V193.89h1.76v3.79a3.3,3.3,0,0,1,2.49-1A2.92,2.92,0,0,1,269.48,200Z"></path><path d="M278.79,201.12h-5.87a2.26,2.26,0,0,0,2.42,1.79,2.73,2.73,0,0,0,2-.81l.94,1.08a4.21,4.21,0,0,1-7.16-2.62,3.72,3.72,0,0,1,3.87-3.83,3.65,3.65,0,0,1,3.79,3.87A5,5,0,0,1,278.79,201.12ZM272.9,200h4.25a2,2,0,0,0-2.12-1.82A2.07,2.07,0,0,0,272.9,200Z"></path><path d="M287.88,200v4.29h-1.75v-4.07c0-1.33-.66-2-1.78-2a2,2,0,0,0-2.09,2.25v3.79H280.5v-7.49h1.67v1a3.26,3.26,0,0,1,2.58-1.05A2.92,2.92,0,0,1,287.88,200Z"></path><path d="M294.61,203.89a2.73,2.73,0,0,1-1.68.51,2.3,2.3,0,0,1-2.58-2.53v-3.6h-1.23v-1.4h1.23v-1.71h1.75v1.71h2v1.4h-2v3.56c0,.73.37,1.12,1,1.12a1.49,1.49,0,0,0,1-.31Z"></path><path d="M295.82,194.53a1.08,1.08,0,0,1,1.12-1.06,1,1,0,0,1,1.12,1,1.12,1.12,0,0,1-2.24.05Zm.24,2.28h1.75v7.49h-1.75Z"></path><path d="M299.49,200.56a3.79,3.79,0,0,1,4.06-3.83,3.35,3.35,0,0,1,3.19,1.74l-1.34.78a2.13,2.13,0,0,0-1.87-1,2.35,2.35,0,0,0,0,4.69,2.11,2.11,0,0,0,1.87-1l1.34.78a3.38,3.38,0,0,1-3.19,1.76A3.81,3.81,0,0,1,299.49,200.56Z"></path><path d="M314.53,199.91v4.39h-1.66v-.91a2.66,2.66,0,0,1-2.35,1c-1.71,0-2.79-.94-2.79-2.25s.84-2.23,3.11-2.23h1.94v-.11c0-1-.62-1.62-1.87-1.62a3.72,3.72,0,0,0-2.27.74l-.69-1.28a5.33,5.33,0,0,1,3.17-.92C313.28,196.73,314.53,197.75,314.53,199.91ZM312.78,202v-.87H311c-1.19,0-1.52.45-1.52,1s.54,1,1.43,1A1.92,1.92,0,0,0,312.78,202Z"></path><path d="M321.28,203.89a2.78,2.78,0,0,1-1.69.51,2.3,2.3,0,0,1-2.58-2.53v-3.6h-1.23v-1.4H317v-1.71h1.76v1.71h2v1.4h-2v3.56c0,.73.36,1.12,1,1.12a1.49,1.49,0,0,0,1-.31Z"></path><path d="M329.48,201.12H323.6a2.27,2.27,0,0,0,2.43,1.79,2.7,2.7,0,0,0,2-.81l.94,1.08a4.2,4.2,0,0,1-7.15-2.62,3.72,3.72,0,0,1,3.87-3.83,3.65,3.65,0,0,1,3.79,3.87C329.51,200.74,329.49,201,329.48,201.12ZM323.59,200h4.25a2,2,0,0,0-2.12-1.82A2.07,2.07,0,0,0,323.59,200Z"></path><path d="M339.47,200.84v3.46h-1.83v-3.44l-3.85-6.38h1.95l2.87,4.79,2.9-4.79h1.8Z"></path><path d="M342.88,200.56a4,4,0,1,1,4,3.84A3.76,3.76,0,0,1,342.88,200.56Zm6.21,0a2.23,2.23,0,1,0-2.23,2.34A2.19,2.19,0,0,0,349.09,200.56Z"></path><path d="M359.79,196.81v7.49h-1.67v-1a3.07,3.07,0,0,1-2.41,1.05,3,3,0,0,1-3.23-3.31v-4.28h1.76v4c0,1.36.64,2,1.75,2A2,2,0,0,0,358,200.6v-3.79Z"></path><path d="M366.42,196.73v1.67a2.08,2.08,0,0,0-.4-.05,2,2,0,0,0-2.18,2.32v3.63h-1.75v-7.49h1.67v1.1A2.93,2.93,0,0,1,366.42,196.73Z"></path><path d="M378.39,202h-4.91l-1,2.27h-1.88l4.42-9.82h1.79l4.44,9.82h-1.91Zm-.61-1.43-1.85-4.29-1.83,4.29Z"></path><path d="M381.67,200.56a3.78,3.78,0,0,1,4.05-3.83,3.37,3.37,0,0,1,3.2,1.74l-1.35.78a2.12,2.12,0,0,0-1.86-1,2.35,2.35,0,0,0,0,4.69,2.1,2.1,0,0,0,1.86-1l1.35.78a3.4,3.4,0,0,1-3.2,1.76A3.8,3.8,0,0,1,381.67,200.56Z"></path><path d="M389.71,200.56a3.78,3.78,0,0,1,4.05-3.83,3.37,3.37,0,0,1,3.2,1.74l-1.35.78a2.13,2.13,0,0,0-1.86-1,2.35,2.35,0,0,0,0,4.69,2.11,2.11,0,0,0,1.86-1l1.35.78a3.4,3.4,0,0,1-3.2,1.76A3.8,3.8,0,0,1,389.71,200.56Z"></path><path d="M397.74,200.56a4,4,0,1,1,4,3.84A3.77,3.77,0,0,1,397.74,200.56Zm6.22,0a2.23,2.23,0,1,0-2.23,2.34A2.19,2.19,0,0,0,404,200.56Z"></path><path d="M414.66,196.81v7.49H413v-1a3.09,3.09,0,0,1-2.41,1.05,3,3,0,0,1-3.23-3.31v-4.28h1.75v4c0,1.36.65,2,1.76,2s2-.76,2-2.26v-3.79Z"></path><path d="M424.34,200v4.29h-1.76v-4.07c0-1.33-.66-2-1.78-2a2,2,0,0,0-2.09,2.25v3.79H417v-7.49h1.67v1a3.23,3.23,0,0,1,2.58-1.05A2.93,2.93,0,0,1,424.34,200Z"></path><path d="M431.07,203.89a2.73,2.73,0,0,1-1.68.51,2.31,2.31,0,0,1-2.59-2.53v-3.6h-1.23v-1.4h1.23v-1.71h1.76v1.71h2v1.4h-2v3.56c0,.73.36,1.12,1,1.12a1.54,1.54,0,0,0,1-.31Z"></path><path d="M458.62,218.23c0,.14-58.8.26-131.32.26S196,218.37,196,218.23,254.76,218,327.3,218,458.62,218.08,458.62,218.23Z" style="fill:#263238"></path><path d="M401.53,231.74a1.59,1.59,0,0,1-.38,0l-1.12,0-4.33.05-15.91.08L327.3,232l-52.5-.08-15.91-.08-4.33-.05-1.12,0a1.59,1.59,0,0,1-.38,0,1.88,1.88,0,0,1,.38,0l1.12,0,4.33-.05,15.91-.09,52.5-.07,52.49.07,15.91.09,4.33.05,1.12,0A1.88,1.88,0,0,1,401.53,231.74Z" style="fill:#263238"></path><rect x="241.35" y="243.59" width="26.93" height="36.24" rx="6.34" style="fill:#e0e0e0"></rect><rect x="277.59" y="243.59" width="26.93" height="36.24" rx="6.34" style="fill:#e0e0e0"></rect><rect x="313.83" y="243.59" width="26.93" height="36.24" rx="6.34" style="fill:#e0e0e0"></rect><rect x="350.07" y="243.59" width="26.93" height="36.24" rx="6.34" style="fill:#e0e0e0"></rect><rect x="386.31" y="243.59" width="26.93" height="36.24" rx="6.34" style="fill:#e0e0e0"></rect><path d="M261.05,267v1H250.3v-.81l6.61-6.57c1.86-1.86,2.22-2.95,2.22-4.14,0-2-1.37-3.19-4-3.19a5.55,5.55,0,0,0-4.49,1.81l-.81-.72a6.91,6.91,0,0,1,5.39-2.14c3.06,0,5,1.58,5,4.13,0,1.5-.49,2.82-2.55,4.85L252,267Z"></path><path d="M284.48,260.22c0-4.89,2.53-7.93,6.13-7.93s6.12,3,6.12,7.93-2.52,7.94-6.12,7.94S284.48,265.12,284.48,260.22Zm11.11,0c0-4.36-2-6.88-5-6.88s-5,2.52-5,6.88,2,6.89,5,6.89S295.59,264.58,295.59,260.22Z"></path><path d="M333.55,252.4v.8l-6.73,14.85h-1.25l6.66-14.62h-8.78v3h-1.12v-4Z"></path><path d="M369.73,263.71h-3.29v4.34h-1.12v-4.34H356.4v-.83l8.5-10.48h1.27l-8.33,10.3h7.51v-3.82h1.09v3.82h3.29Z"></path><path d="M408.94,272.38a74.81,74.81,0,0,1-8.75.26,74.81,74.81,0,0,1-8.75-.26,71,71,0,0,1,8.75-.27A71,71,0,0,1,408.94,272.38Z" style="fill:#FF0077"></path><rect x="274.86" y="299.26" width="103.52" height="33.27" rx="16.15" style="fill:#FF0077"></rect><path d="M307.22,319.16l.48-1.06a4.09,4.09,0,0,0,2.43.81c1.14,0,1.63-.41,1.63-1,0-1.59-4.38-.55-4.38-3.28,0-1.19.95-2.2,3-2.2a4.6,4.6,0,0,1,2.45.66l-.44,1.06a4,4,0,0,0-2-.58c-1.14,0-1.6.44-1.6,1,0,1.56,4.36.54,4.36,3.25,0,1.17-1,2.18-3,2.18A4.73,4.73,0,0,1,307.22,319.16Z" style="fill:#fff"></path><path d="M319.76,314.32v5.62h-1.25v-.72a2.28,2.28,0,0,1-1.81.79,2.22,2.22,0,0,1-2.42-2.48v-3.21h1.32v3c0,1,.48,1.5,1.31,1.5a1.48,1.48,0,0,0,1.54-1.69v-2.84Z" style="fill:#fff"></path><path d="M327.44,317.13a2.73,2.73,0,0,1-2.85,2.88,2.31,2.31,0,0,1-1.86-.8v.73h-1.25v-7.8h1.32V315a2.31,2.31,0,0,1,1.79-.75A2.73,2.73,0,0,1,327.44,317.13Zm-1.33,0a1.67,1.67,0,1,0-1.66,1.76A1.63,1.63,0,0,0,326.11,317.13Z" style="fill:#fff"></path><path d="M338.08,316.72v3.22h-1.32v-3.05c0-1-.46-1.48-1.26-1.48S334,316,334,317.09v2.85h-1.31v-3.05c0-1-.47-1.48-1.26-1.48S330,316,330,317.09v2.85h-1.31v-5.62h1.25V315a2.31,2.31,0,0,1,1.84-.78,2.11,2.11,0,0,1,1.89.94,2.64,2.64,0,0,1,2.11-.94A2.16,2.16,0,0,1,338.08,316.72Z" style="fill:#fff"></path><path d="M339.58,312.61a.8.8,0,0,1,.84-.79.79.79,0,0,1,.84.76.81.81,0,0,1-.84.82A.8.8,0,0,1,339.58,312.61Zm.17,1.71h1.32v5.62h-1.32Z" style="fill:#fff"></path><path d="M346.17,319.63a2,2,0,0,1-1.27.38,1.72,1.72,0,0,1-1.93-1.89v-2.7H342v-1.05H343v-1.29h1.31v1.29h1.51v1.05h-1.51v2.67a.73.73,0,0,0,.78.84,1.25,1.25,0,0,0,.74-.23Z" style="fill:#fff"></path></g><g id="freepik--speech-bubble--inject-33"><path d="M616.89,159l5.85-12.72a32.62,32.62,0,1,1,8.52,8h0Z" style="fill:#fff"></path><path d="M616.89,159l14.34-4.83-.05.21h0l-.69-.74.85.54a32.37,32.37,0,0,0,16,5.11,28.53,28.53,0,0,0,5.11-.19c.87-.13,1.75-.23,2.64-.38l2.68-.65a32.51,32.51,0,0,0,18.92-14.61,32.13,32.13,0,0,0,4.34-12.84,32.71,32.71,0,0,0-1.6-14.21,31.68,31.68,0,0,0-8-12.58A32.25,32.25,0,0,0,658.39,96a32.75,32.75,0,0,0-14.54-1A31.71,31.71,0,0,0,631,100a32.65,32.65,0,0,0-13.68,20,34.72,34.72,0,0,0-.55,10.56,32.43,32.43,0,0,0,6.07,15.6l0,.06,0,.06c-3.77,8-5.59,11.87-6,12.67.36-.8,2.1-4.69,5.74-12.77v.12a32.34,32.34,0,0,1-6.23-15.7,35.21,35.21,0,0,1,.51-10.69,33,33,0,0,1,13.81-20.3,32.19,32.19,0,0,1,13-5.1,33.3,33.3,0,0,1,14.76,1,32.76,32.76,0,0,1,13.29,7.89,32.15,32.15,0,0,1,8.11,12.78,33.27,33.27,0,0,1,1.61,14.43,32.58,32.58,0,0,1-4.43,13,32.87,32.87,0,0,1-19.22,14.76l-2.71.65c-.9.15-1.8.25-2.68.38a30.12,30.12,0,0,1-5.17.17,32.51,32.51,0,0,1-16.15-5.26l.17-.2v0l.13.15-.19.06Z" style="fill:#263238"></path><path d="M659.29,128a8.64,8.64,0,1,0-13.4-2l-1.75,1.64.41,2.91-2.72-.76-2.2,2.05.42,2.92-2.72-.77-1.89,1.76.25,1.78L634,137l-1.1,1-.16,2.7,4,1,13.07-12.19A8.64,8.64,0,0,0,659.29,128ZM658,117.36a2.48,2.48,0,1,1-3.5-.12A2.48,2.48,0,0,1,658,117.36Z" style="fill:#263238"></path><path d="M659.29,128a8.64,8.64,0,1,0-13.4-2l-1.75,1.64.41,2.91-2.72-.76-2.2,2.05.42,2.92-2.72-.77-1.89,1.76.25,1.78L634,137l-1.1,1-.16,2.7,4,1,13.07-12.19A8.64,8.64,0,0,0,659.29,128ZM658,117.36a2.48,2.48,0,1,1-3.5-.12A2.48,2.48,0,0,1,658,117.36Z" style="fill:none"></path><path d="M658,117.36s-.16-.15-.49-.35a2.47,2.47,0,0,0-1.56-.34,2.34,2.34,0,1,0,2.37,1.21c-.18-.35-.34-.5-.32-.52s0,0,.12.11a1.68,1.68,0,0,1,.27.37,2.42,2.42,0,0,1,.31,1.64,2.54,2.54,0,0,1-1.5,1.94,2.55,2.55,0,0,1-2.9-.61,2.52,2.52,0,0,1-.67-1.46,2.45,2.45,0,0,1,.27-1.47,2.57,2.57,0,0,1,2-1.37,2.44,2.44,0,0,1,1.62.43,1.64,1.64,0,0,1,.35.3C658,117.31,658,117.36,658,117.36Z" style="fill:#263238"></path><path d="M659.29,128l-.13.12-.38.34a8.91,8.91,0,0,1-1.67,1.06,8.75,8.75,0,0,1-3.07.82,8.64,8.64,0,0,1-4.2-.72h.07l-13,12.22,0,0h-.05l-4-1-.08,0v-.08c.05-.85.1-1.77.16-2.71v0l0,0,1.1-1,0,0,.06,0,1.66.46-.13.12-.26-1.78v-.06l0,0,1.89-1.77,0,0,.05,0,2.73.76-.14.12c-.13-.92-.27-1.92-.42-2.91v-.06l0,0,.58-.54,1.62-1.51,0,0,.06,0,2.72.76-.13.12c-.14-1-.28-2-.42-2.92v0l0,0,1.76-1.64,0,.13a8.8,8.8,0,0,1-1.12-3.93,8.35,8.35,0,0,1,.14-2,8,8,0,0,1,.58-1.87,8.72,8.72,0,0,1,15.8-.37,8.85,8.85,0,0,1,.85,4.54,8.64,8.64,0,0,1-1,3.32l-.16.31-.18.27a5.2,5.2,0,0,1-.33.49c-.23.28-.41.53-.58.71s-.31.3-.4.4l-.14.13.12-.15.39-.41c.17-.18.34-.43.57-.71s.2-.32.32-.49l.17-.28.15-.3a8.44,8.44,0,0,0,.93-3.3,8.55,8.55,0,0,0-.86-4.46,8.55,8.55,0,0,0-15.5.38,8.09,8.09,0,0,0-.56,1.83,8.46,8.46,0,0,0-.14,2,8.66,8.66,0,0,0,1.1,3.84l0,.07L646,126l-1.75,1.64,0-.1c.14,1,.28,1.94.42,2.92l0,.16-.15,0-2.73-.77.1,0-1.61,1.51-.59.54,0-.1c.14,1,.28,2,.42,2.92l0,.16-.16,0L637.3,134l.1,0-1.89,1.76,0-.09c.09.61.18,1.22.26,1.78l0,.16-.16-.05L634,137.1l.1,0-1.1,1,0-.07c0,.93-.11,1.86-.16,2.7l-.08-.11,4,1-.09,0,13.09-12.16,0,0h0a8.66,8.66,0,0,0,4.15.74,8.51,8.51,0,0,0,3-.79,9.51,9.51,0,0,0,1.68-1l.39-.33Z" style="fill:#263238"></path><path d="M659,127a8.64,8.64,0,1,0-13.4-2h0l-1.75,1.64.42,2.91-2.73-.76-2.2,2,.42,2.92-2.72-.77-1.89,1.76.25,1.78-1.66-.46-1.1,1-.16,2.7,4,1,13.07-12.2A8.64,8.64,0,0,0,659,127Zm-1.28-10.62a2.48,2.48,0,1,1-3.5-.12A2.48,2.48,0,0,1,657.72,116.38Z" style="fill:#FF0077"></path><path d="M659,127a8.64,8.64,0,1,0-13.4-2h0l-1.75,1.64.42,2.91-2.73-.76-2.2,2,.42,2.92-2.72-.77-1.89,1.76.25,1.78-1.66-.46-1.1,1-.16,2.7,4,1,13.07-12.2A8.64,8.64,0,0,0,659,127Zm-1.28-10.62a2.48,2.48,0,1,1-3.5-.12A2.48,2.48,0,0,1,657.72,116.38Z" style="fill:none"></path><path d="M657.72,116.38s-.16-.15-.49-.35a2.45,2.45,0,0,0-1.56-.34,2.38,2.38,0,1,0,1.17,4.57,2.44,2.44,0,0,0,1.2-3.36c-.18-.35-.34-.5-.32-.52s0,0,.12.11a1.68,1.68,0,0,1,.27.37,2.37,2.37,0,0,1,.31,1.64,2.54,2.54,0,0,1-1.5,1.94,2.55,2.55,0,0,1-2.9-.61,2.52,2.52,0,0,1-.67-1.46,2.45,2.45,0,0,1,.27-1.47,2.57,2.57,0,0,1,2-1.37,2.42,2.42,0,0,1,1.61.43,1.64,1.64,0,0,1,.35.3C657.69,116.33,657.73,116.38,657.72,116.38Z" style="fill:#263238"></path><path d="M659,127l-.13.12-.38.34a8.91,8.91,0,0,1-1.67,1.06,8.75,8.75,0,0,1-3.07.82,8.64,8.64,0,0,1-4.2-.72h.07l-13,12.22,0,0h0l-4-1-.08,0v-.08c0-.85.1-1.77.16-2.71v0l0,0,1.1-1,0,0,.06,0,1.66.46-.13.12-.26-1.78v-.06l0,0,1.89-1.77,0,0,0,0,2.73.76-.13.12c-.14-.92-.28-1.92-.42-2.91v-.06l0,0,.58-.54,1.62-1.51,0,0,.06,0,2.72.76-.13.12c-.14-1-.28-2-.42-2.92v0l0,0,1.76-1.64,0,.13a8.8,8.8,0,0,1-1.12-3.93,8.35,8.35,0,0,1,.14-2,8,8,0,0,1,.58-1.87,8.7,8.7,0,0,1,16.65,4.17,8.47,8.47,0,0,1-1,3.32l-.16.31-.18.27a5.2,5.2,0,0,1-.33.49c-.23.28-.41.53-.58.71l-.4.4L659,127l.12-.15.39-.41c.17-.18.34-.43.57-.71s.2-.32.32-.49l.17-.28.15-.3a8.44,8.44,0,0,0,.93-3.3,8.55,8.55,0,0,0-16.36-4.08,8.09,8.09,0,0,0-.56,1.83,8.46,8.46,0,0,0-.14,2,8.8,8.8,0,0,0,1.1,3.84l0,.07-.06.06-1.75,1.64,0-.1c.14,1,.28,1.94.42,2.92l0,.16-.16,0-2.73-.77.1,0L640,130.33l-.58.54,0-.1c.14,1,.29,2,.42,2.92l0,.16-.16,0L637,133l.1,0-1.89,1.76,0-.09c.09.61.18,1.22.26,1.78l0,.16-.16,0-1.66-.46.1,0-1.1,1,0-.07c0,.93-.11,1.86-.16,2.7l-.08-.11,4,1-.09,0,13.09-12.16,0,0h0a8.66,8.66,0,0,0,4.15.74,8.51,8.51,0,0,0,3-.79,9.51,9.51,0,0,0,1.68-1l.39-.33Z" style="fill:#263238"></path><path d="M658.2,126.32a9.81,9.81,0,0,0,1.16-1.46,7.13,7.13,0,0,0,.89-2,7.53,7.53,0,0,0-.89-6.12,7.65,7.65,0,0,0-2.93-2.66,7.33,7.33,0,0,0-2-.69,8.19,8.19,0,0,0-1.11-.12,8.7,8.7,0,0,0-1.14,0,7.48,7.48,0,0,0-6.48,6,8.5,8.5,0,0,0-.13,1.13,10.19,10.19,0,0,0,.05,1.11,6.87,6.87,0,0,0,.55,2.08,7.42,7.42,0,0,0,2.44,3.11,7.55,7.55,0,0,0,3.18,1.37,7.8,7.8,0,0,0,2.87-.05,7.23,7.23,0,0,0,2-.75,10.45,10.45,0,0,0,1.53-1.06s0,0-.08.09l-.27.24a3.51,3.51,0,0,1-.47.37,6.05,6.05,0,0,1-.67.43,7.14,7.14,0,0,1-2.06.8,7.66,7.66,0,0,1-8.71-4.47,7.18,7.18,0,0,1-.56-2.14,8.62,8.62,0,0,1-.06-1.14,7.5,7.5,0,0,1,.14-1.16,7.7,7.7,0,0,1,2.3-4.21,7.79,7.79,0,0,1,4.36-2,9.16,9.16,0,0,1,1.17-.05,8.5,8.5,0,0,1,1.13.13,7.35,7.35,0,0,1,2.1.72,7.63,7.63,0,0,1,4.13,6.08,7.51,7.51,0,0,1-1.22,4.91,4.44,4.44,0,0,1-.48.64,3.73,3.73,0,0,1-.39.44l-.26.25C658.24,126.3,658.21,126.33,658.2,126.32Z" style="fill:#263238"></path><path d="M657.85,120.2s.18-.19.43-.57a3,3,0,0,0,.4-1.84,2.72,2.72,0,0,0-.43-1.22,2.86,2.86,0,0,0-1.1-1,2.8,2.8,0,0,0-4,2,2.83,2.83,0,0,0,1.08,2.78,2.67,2.67,0,0,0,1.19.52,2.89,2.89,0,0,0,1.85-.28,6.51,6.51,0,0,0,.6-.38s0,0-.12.13a2.09,2.09,0,0,1-.44.32,2.86,2.86,0,0,1-1.92.36,2.94,2.94,0,0,1-2.26-1.76,3,3,0,0,1-.19-1.73,3.07,3.07,0,0,1,.9-1.65,3,3,0,0,1,3.42-.47,3.17,3.17,0,0,1,1.16,1.07,2.85,2.85,0,0,1-.4,3.61Z" style="fill:#263238"></path><path d="M635.45,140.28c0-.05,2.9-2.86,6.57-6.28s6.68-6.17,6.72-6.12-2.9,2.85-6.57,6.28S635.49,140.32,635.45,140.28Z" style="fill:#263238"></path><path d="M637.07,123.17l.12-.27.16.24a1.26,1.26,0,0,0,.52.45l.27.12-.24.16a1.26,1.26,0,0,0-.45.52l-.12.27-.16-.25a1.23,1.23,0,0,0-.52-.44l-.27-.12.25-.16A1.23,1.23,0,0,0,637.07,123.17Z" style="fill:#FF0077"></path><path d="M629.07,121.17l.07-.15.09.14a.79.79,0,0,0,.31.26l.15.07-.14.09a.63.63,0,0,0-.26.3l-.07.16-.09-.14a.65.65,0,0,0-.31-.26l-.15-.07.14-.09A.79.79,0,0,0,629.07,121.17Z" style="fill:#FF0077"></path><path d="M654.27,134.81l.07-.15.09.14a.76.76,0,0,0,.3.26l.16.07-.14.09a.63.63,0,0,0-.26.3l-.07.16-.1-.15a.67.67,0,0,0-.3-.25l-.15-.07.14-.1A.76.76,0,0,0,654.27,134.81Z" style="fill:#FF0077"></path><path d="M666.6,127.82l.12-.27.16.24a1.16,1.16,0,0,0,.53.45l.26.12-.24.16a1.26,1.26,0,0,0-.45.52l-.12.27-.16-.24a1.2,1.2,0,0,0-.52-.45l-.27-.12.25-.16A1.23,1.23,0,0,0,666.6,127.82Z" style="fill:#FF0077"></path><path d="M665,118l.2-.45.27.41a2,2,0,0,0,.88.75l.44.2-.41.27a2.07,2.07,0,0,0-.75.88l-.2.45-.27-.41a2,2,0,0,0-.87-.75l-.45-.2.41-.27A2,2,0,0,0,665,118Z" style="fill:#FF0077"></path><path d="M634.58,115l.21-.45.26.41a2.07,2.07,0,0,0,.88.75l.45.2-.41.27a2.07,2.07,0,0,0-.75.88l-.2.45-.27-.41a2,2,0,0,0-.88-.75l-.44-.2.41-.27A2.11,2.11,0,0,0,634.58,115Z" style="fill:#FF0077"></path></g></svg>